<?xml version="1.0" encoding="UTF-8" standalone="no"?>
<svg width="618px" height="450px" viewBox="0 0 618 450" version="1.1" xmlns="http://www.w3.org/2000/svg" xmlns:xlink="http://www.w3.org/1999/xlink" xmlns:sketch="http://www.bohemiancoding.com/sketch/ns">
    <!-- Generator: Sketch 3.3.3 (12072) - http://www.bohemiancoding.com/sketch -->
    <title>Slice 1</title>
    <desc>Created with Sketch.</desc>
    <defs></defs>
    <g id="Page-1" stroke="none" stroke-width="1" fill="none" fill-rule="evenodd" sketch:type="MSPage">
        <g id="Leaf" sketch:type="MSLayerGroup" transform="translate(158.126551, 195.994723) rotate(20.000000) translate(-158.126551, -195.994723) translate(-54.373449, -32.005277)" stroke="#000000" stroke-width="5" fill="#FEE9B0">
            <path d="M128.283283,65.7648638 C127.380727,64.9007051 125.935429,64.6224314 125.220114,66.8214413 C124.076816,81.6463147 79.0551403,132.359876 60.246422,197.122164 C53.5109023,220.982949 60.5570532,245.200969 69.7094559,259.567661 C78.8618587,273.934354 103.100586,278.861309 115.286817,284.507894 C118.546287,286.41051 115.241303,284.523421 120.649306,289.078482 C122.788347,290.637678 124.220797,290.813829 126.197524,290.637678 C141.203508,289.300462 152.669125,290.871722 162.294807,289.078487 C173.188472,287.04903 180.00165,276.027663 186.648292,276.027663 C190.683048,275.124675 194.956816,296.636316 202.72777,319.565212 C210.498725,342.494108 228.129206,376.854232 240.135531,392.701599 C252.141855,408.548967 272.236327,429.636568 281.941311,438.906263 C287.308762,444.032971 287.03998,444.16801 288.836461,447.318328 C290.632941,450.468646 289.144507,452.696562 293.32163,455.308452 C294.090876,455.632035 294.222894,455.308461 294.486931,454.902052 C294.750967,454.495642 293.909725,448.612279 296.884397,447.011148 C300.245252,445.202153 300.643035,448.056508 304.71144,446.425263 C305.552304,445.767122 305.427321,445.061024 305.069747,444.619512 C302.101349,440.954307 297.763344,441.093836 291.692544,437.139116 C279.284296,429.055973 252.856957,399.735301 244.882755,387.723096 C236.908553,375.710891 219.528174,346.273463 208.969734,316.117646 C204.748817,301.86744 200.330437,287.076219 198.918858,275.268742 C198.918858,273.442381 199.173225,271.579505 200.790371,269.975567 C202.407517,268.37163 208.138431,267.996044 214.26513,268.783916 C221.897595,269.765424 251.144384,256.291365 257.346224,246.358933 C263.548065,236.426501 260.001687,234.360803 265.97228,225.534563 C271.942872,216.708323 275.135902,219.344374 278.773736,213.790116 C282.41157,208.235858 289.737725,200.715994 290.278307,185.623633 C290.818889,170.531272 284.142482,146.169158 272.541267,137.333426 C260.940051,128.497695 228.3721,95.3326385 170.6853,86.7281546 C139.252138,82.0396272 129.185839,66.6290225 128.283283,65.7648638 Z" id="Path-1" sketch:type="MSShapeGroup"></path>
        </g>
        <path d="M151.24,209 L138.108,170.584 L109.688,170.584 L96.752,209 L59.316,209 L102.044,63.176 L145.948,63.176 L188.676,209 L151.24,209 Z M288.048,175.092 C287.786665,179.796024 286.447345,184.205979 284.03,188.322 C281.612655,192.438021 278.280688,196.031318 274.034,199.102 C269.787312,202.172682 264.658697,204.589991 258.648,206.354 C252.637303,208.118009 245.842705,209 238.264,209 C232.383971,209 226.863359,208.216008 221.702,206.648 C216.540641,205.079992 211.869354,202.858681 207.688,199.984 C203.506646,197.109319 199.946015,193.614021 197.006,189.498 C194.065985,185.381979 191.942673,180.710693 190.636,175.484 C190.636,175.484 221.506,162.952438 221.8,162.812864 C222.004372,163.371274 222.028626,163.431638 222.878,165.096 C223.727374,166.760362 224.935992,168.591324 226.504,170.486 C228.072008,172.380676 229.999322,174.079326 232.286,175.582 C234.572678,177.084674 237.022654,177.640002 239.636,177.248 C241.857344,176.986665 244.045989,176.006675 246.202,174.308 C248.358011,172.609325 249.370667,169.930685 249.24,166.272 C249.109333,164.050656 248.227341,161.992676 246.594,160.098 C244.960659,158.203324 242.641348,156.210677 239.636,154.12 C232.971967,149.677311 226.798028,145.790017 221.114,142.458 C215.429972,139.125983 210.464688,135.630685 206.218,131.972 C201.971312,128.313315 198.639345,124.197356 196.222,119.624 C193.804655,115.050644 192.596,109.301368 192.596,102.376 C192.596,95.9733013 193.902654,90.3546908 196.516,85.52 C199.129346,80.6853092 202.591978,76.634683 206.904,73.368 C211.216022,70.101317 216.181305,67.6186752 221.8,65.92 C227.418695,64.2213248 233.233303,63.3066673 239.244,63.176 C246.430703,63.176 252.735306,64.1886565 258.158,66.214 C263.580694,68.2393435 268.153981,70.8199843 271.878,73.956 C275.602019,77.0920157 278.509323,80.6526467 280.6,84.638 C282.690677,88.6233533 284.062663,92.5759804 284.716,96.496 L255.904,107.864 C255.511998,106.426659 254.924004,104.826009 254.14,103.062 C253.355996,101.297991 252.278007,99.6646742 250.906,98.162 C249.533993,96.6593258 247.900676,95.3853386 246.006,94.34 C244.111324,93.2946614 241.922679,92.772 239.44,92.772 C236.826654,92.772 234.442011,93.5886585 232.286,95.222 C230.129989,96.8553415 229.052,99.305317 229.052,102.572 C229.052,105.054679 230.064657,107.243324 232.09,109.138 C234.115343,111.032676 237.283978,113.547984 241.596,116.684 C247.606697,120.08135 253.388639,123.47865 258.942,126.876 C264.495361,130.27335 269.427978,134.127978 273.74,138.44 C278.052022,142.752022 281.514654,147.619306 284.128,153.042 C286.741346,158.464694 288.048,164.899963 288.048,172.348 L288.048,175.092 Z M342.34,63.176 C348.612031,63.176 354.295975,64.2866556 359.392,66.508 C364.488025,68.7293444 368.832649,71.8979794 372.426,76.014 C376.019351,80.1300206 378.79599,85.0953043 380.756,90.91 C382.71601,96.7246957 383.696,103.225297 383.696,110.412 C383.696,117.468035 382.71601,123.870638 380.756,129.62 C378.79599,135.369362 376.019351,140.334646 372.426,144.516 C368.832649,148.697354 364.488025,151.931322 359.392,154.218 C354.295975,156.504678 348.612031,157.648 342.34,157.648 L342.144,157.648 L331.364,157.648 L331.364,209 L297.848,209 L297.848,63.176 L342.144,63.176 L342.34,63.176 Z M484.636,96.104 L428.188,96.104 L428.188,119.624 L469.74,119.624 L469.74,152.552 L428.188,152.552 L428.188,176.072 L484.636,176.072 L484.636,209 L395.26,209 L395.26,63.176 L484.636,63.176 L484.636,96.104 Z M570.288,63.176 L605.176,63.176 L605.176,209 L571.856,209 L532.656,137.264 L532.656,209 L497.768,209 L497.768,63.176 L531.284,63.176 L570.288,134.716 L570.288,63.176 Z" id="ASPEN" stroke="#000000" stroke-width="5" fill="#FFFFFF" sketch:type="MSShapeGroup"></path>
    </g>
</svg>