<?xml version="1.0" encoding="UTF-8" standalone="no"?>
<svg width="600px" height="196px" viewBox="0 0 600 196" version="1.1" xmlns="http://www.w3.org/2000/svg" xmlns:xlink="http://www.w3.org/1999/xlink" xmlns:sketch="http://www.bohemiancoding.com/sketch/ns">
    <!-- Generator: Sketch 3.3.3 (12072) - http://www.bohemiancoding.com/sketch -->
    <title>pando</title>
    <desc>Created with Sketch.</desc>
    <defs></defs>
    <g id="Page-1" stroke="none" stroke-width="1" fill="none" fill-rule="evenodd" sketch:type="MSPage">
        <path d="M69.3579334,25 C75.6110655,25 81.2778813,26.1073089 86.3585511,28.3219598 C91.4392209,30.5366107 95.7707526,33.6956977 99.3532761,37.7993156 C102.9358,41.9029335 105.704072,46.8532554 107.658176,52.6504299 C109.612279,58.4476044 110.589317,64.9286179 110.589317,72.093665 C110.589317,79.1284385 109.612279,85.5117484 107.658176,91.2437861 C105.704072,96.9758237 102.9358,101.926146 99.3532761,106.0949 C95.7707526,110.263655 91.4392209,113.487878 86.3585511,115.767666 C81.2778813,118.047453 75.6110655,119.18733 69.3579334,119.18733 L69.162524,119.18733 L58.4150071,119.18733 L58.4150071,170.384592 L25,170.384592 L25,25 L69.162524,25 L69.3579334,25 Z M176.066442,132.08435 L147.732079,132.08435 L134.835059,170.384592 L97.5118639,170.384592 L140.111113,25 L183.882818,25 L226.482067,170.384592 L189.158872,170.384592 L176.066442,132.08435 Z M306.189162,25 L340.972035,25 L340.972035,170.384592 L307.752437,170.384592 L268.670557,98.8647526 L268.670557,170.384592 L233.887684,170.384592 L233.887684,25 L267.302691,25 L306.189162,96.3244304 L306.189162,25 Z M454.604594,97.6922962 C454.604594,107.462815 453.497285,116.744669 451.282634,125.538135 C449.067983,134.331602 445.420377,142.050196 440.339708,148.694149 C435.259038,155.338102 428.615185,160.614103 420.407949,164.52231 C412.200713,168.430518 402.169798,170.384592 390.314902,170.384592 L386.015895,170.384592 L356.704485,170.384592 L356.704485,25 L386.015895,25 C397.349697,25 407.315476,26.8563707 415.913533,30.5691679 C424.511589,34.281965 431.676529,39.3625585 437.408567,45.8111009 C443.140604,52.2596433 447.439568,59.9456695 450.305587,68.8694099 C453.171606,77.7931504 454.604594,87.4006831 454.604594,97.6922962 L454.604594,97.6922962 Z M574.99371,112.54341 C574.99371,119.578184 573.918969,126.710556 571.769455,133.94074 C569.61994,141.170924 565.939767,147.521665 560.728824,152.993156 C555.387607,158.725194 549.297408,163.089293 542.458045,166.085586 C535.618682,169.081878 528.356038,170.580002 520.669897,170.580002 L520.474488,170.580002 C512.91862,170.580002 505.721112,169.081878 498.881749,166.085586 C492.042386,163.089293 485.887051,158.790329 480.415561,153.188565 C475.334891,147.717075 471.719853,141.529172 469.570339,134.624673 C467.420825,127.720173 466.280948,120.359826 466.150675,112.54341 L466.150675,78.5421752 C466.150675,72.2890432 467.388255,65.9383012 469.863453,59.4897588 C472.338651,53.0412164 475.855985,47.3418326 480.415561,42.3914365 C485.887051,36.7896724 492.009818,32.4907086 498.784044,29.4944162 C505.558271,26.4981237 512.788346,25 520.474488,25 L520.669897,25 C528.356038,25 535.618682,26.4981237 542.458045,29.4944162 C549.297408,32.4907086 555.387607,36.7896724 560.728824,42.3914365 C565.418673,47.3418326 568.936007,52.9435127 571.280931,59.1966447 C573.625856,65.4497767 574.863436,71.8982224 574.99371,78.5421752 L574.99371,112.54341 Z" id="PANDO" fill="#000000" sketch:type="MSShapeGroup"></path>
    </g>
</svg>